<svg fill="none" height="113" viewBox="0 0 142 113" width="142" xmlns="http://www.w3.org/2000/svg" xmlns:xlink="http://www.w3.org/1999/xlink"><linearGradient id="a"><stop offset="0" stop-color="#00bef0" stop-opacity="0"/><stop offset=".472766" stop-color="#00bef0"/><stop offset=".9" stop-color="#c7f284"/></linearGradient><linearGradient id="b" gradientUnits="userSpaceOnUse" x1="54" x2="85" xlink:href="#a" y1="62" y2="-26"/><linearGradient id="c"><stop offset="0" stop-color="#00bef0" stop-opacity="0"/><stop offset=".472766" stop-color="#00bef0"/><stop offset=".941584" stop-color="#c7f284"/><stop offset="1" stop-color="#c7f284" stop-opacity="0"/></linearGradient><linearGradient id="d" gradientUnits="userSpaceOnUse" x1="-20.5" x2="94" xlink:href="#c" y1="27" y2="27"/><linearGradient id="e" gradientUnits="userSpaceOnUse" x1="54" x2="85" xlink:href="#a" y1="92" y2="4"/><linearGradient id="f" gradientUnits="userSpaceOnUse" x1="-73" x2="50.5" xlink:href="#c" y1="57" y2="57"/><linearGradient id="g" gradientUnits="userSpaceOnUse" x1="54" x2="85" xlink:href="#a" y1="122" y2="34"/><linearGradient id="h" gradientUnits="userSpaceOnUse" x1="-32" x2="122" xlink:href="#c" y1="87" y2="87"/><linearGradient id="i" gradientUnits="userSpaceOnUse" x1="89.7857" x2="143.229" xlink:href="#a" y1="87" y2="68.0361"/><linearGradient id="j" gradientUnits="userSpaceOnUse" x1="43.7857" x2="97.2294" xlink:href="#a" y1="117" y2="98.0361"/><linearGradient id="k" gradientUnits="userSpaceOnUse" x1="113.786" x2="167.229" xlink:href="#a" y1="147" y2="128.036"/><rect fill="url(#b)" fill-opacity=".23" height="14" rx="5.10492" width="112" x="13" y="20"/><rect fill="url(#d)" fill-opacity=".4" height="14" rx="5.10492" width="112" x="13" y="20"/><rect fill="url(#e)" fill-opacity=".23" height="14" rx="5.10492" width="112" x="13" y="50"/><rect fill="url(#f)" fill-opacity=".4" height="14" rx="5.10492" width="112" x="13" y="50"/><rect fill="url(#g)" fill-opacity=".23" height="14" rx="5.10492" width="112" x="13" y="80"/><rect fill="url(#h)" fill-opacity=".4" height="14" rx="5.10492" width="112" x="13" y="80"/><g fill-opacity=".76"><circle cx="93" cy="27" fill="url(#i)" r="12"/><circle cx="47" cy="57" fill="url(#j)" r="12"/><circle cx="117" cy="87" fill="url(#k)" r="12"/></g></svg>