<svg width="142" height="113" viewBox="0 0 142 113" fill="none" xmlns="http://www.w3.org/2000/svg">
<rect x="13.2939" y="16.6176" width="49.1351" height="79.7647" rx="5.10492" fill="url(#paint0_linear_2132_2375)" fill-opacity="0.1"/>
<rect x="71.4561" y="16.6176" width="49.1351" height="79.7647" rx="5.10492" fill="url(#paint1_linear_2132_2375)" fill-opacity="0.23"/>
<path d="M57.0542 44.3133H52.6228C50.9844 44.3133 49.3712 44.7171 47.926 45.4889C46.4808 46.2607 45.248 47.3768 44.3368 48.7384C43.4255 50.1 42.8639 51.6652 42.7015 53.2955C42.539 54.9259 42.7809 56.5711 43.4056 58.0857C44.0304 59.6003 45.0187 60.9377 46.2833 61.9794C47.5478 63.0212 49.0496 63.7353 50.6558 64.0585C52.262 64.3817 53.9231 64.3042 55.4922 63.8327C57.0613 63.3612 58.4901 62.5103 59.652 61.3552C61.4689 59.5495 64.8091 54.2839 64.8091 54.2839C64.8091 54.2839 68.1392 49.0416 69.9406 47.238C71.0995 46.0777 72.5267 45.2211 74.0957 44.7442C75.6648 44.2673 77.3273 44.1848 78.9358 44.504C80.5444 44.8231 82.0494 45.5342 83.3175 46.574C84.5856 47.6139 85.5776 48.9505 86.2057 50.4654C86.8337 51.9803 87.0784 53.6267 86.9181 55.2588C86.7577 56.8909 86.1973 58.4582 85.2864 59.8219C84.3755 61.1856 83.1423 62.3036 81.6961 63.0768C80.2499 63.8499 78.6353 64.2545 76.9953 64.2545H72.564" stroke="url(#paint2_linear_2132_2375)" stroke-opacity="0.6" stroke-width="4.43137" stroke-linecap="round" stroke-linejoin="round"/>
<path d="M76.9956 59.8234L72.5642 64.2548L76.9956 68.6861M52.623 39.8822L57.0544 44.3136L52.623 48.7449" stroke="url(#paint3_linear_2132_2375)" stroke-width="4.43137" stroke-linecap="round" stroke-linejoin="round"/>
<defs>
<linearGradient id="paint0_linear_2132_2375" x1="39.1377" y1="108.826" x2="93.9328" y2="40.6382" gradientUnits="userSpaceOnUse">
<stop stop-color="#00BEF0" stop-opacity="0"/>
<stop offset="0.472766" stop-color="#00BEF0"/>
<stop offset="0.9" stop-color="#C7F284"/>
</linearGradient>
<linearGradient id="paint1_linear_2132_2375" x1="97.2998" y1="108.826" x2="152.095" y2="40.6382" gradientUnits="userSpaceOnUse">
<stop stop-color="#00BEF0" stop-opacity="0"/>
<stop offset="0.472766" stop-color="#00BEF0"/>
<stop offset="0.9" stop-color="#C7F284"/>
</linearGradient>
<linearGradient id="paint2_linear_2132_2375" x1="52.3458" y1="89.7351" x2="60.5411" y2="39.5498" gradientUnits="userSpaceOnUse">
<stop stop-color="#00BEF0" stop-opacity="0"/>
<stop offset="0.472766" stop-color="#00BEF0"/>
<stop offset="0.9" stop-color="#C7F284"/>
</linearGradient>
<linearGradient id="paint3_linear_2132_2375" x1="65.4424" y1="73.1795" x2="83.1048" y2="42.9883" gradientUnits="userSpaceOnUse">
<stop stop-color="#00BEF0" stop-opacity="0"/>
<stop offset="0.472766" stop-color="#00BEF0"/>
<stop offset="0.9" stop-color="#C7F284"/>
</linearGradient>
</defs>
</svg>
