<svg width="30" height="30" viewBox="0 0 30 30" fill="none" xmlns="http://www.w3.org/2000/svg">
<path fill-rule="evenodd" clip-rule="evenodd" d="M21.2923 13.5377C20.7586 13.0041 20.7586 12.1388 21.2923 11.6051C21.8259 11.0714 22.6912 11.0714 23.2249 11.6051C23.7586 12.1388 23.7586 13.0041 23.2249 13.5377C22.6912 14.0714 21.8259 14.0714 21.2923 13.5377ZM16.7023 18.1277C16.302 17.7275 16.302 17.0785 16.7023 16.6783C17.1025 16.278 17.7515 16.278 18.1517 16.6783C18.552 17.0785 18.552 17.7275 18.1517 18.1277C17.7515 18.528 17.1025 18.528 16.7023 18.1277ZM23.9496 15.7119C23.5494 15.3117 23.5494 14.6627 23.9496 14.2625C24.3499 13.8622 24.9988 13.8622 25.3991 14.2625C25.7994 14.6627 25.7994 15.3117 25.3991 15.7119C24.9988 16.1122 24.3499 16.1122 23.9496 15.7119ZM21.5338 18.1277C21.1336 17.7275 21.1336 17.0785 21.5338 16.6783C21.9341 16.278 22.5831 16.278 22.9833 16.6783C23.3836 17.0785 23.3836 17.7275 22.9833 18.1277C22.5831 18.528 21.9341 18.528 21.5338 18.1277ZM26.607 17.8861C26.3402 17.6193 26.3402 17.1867 26.607 16.9198C26.8738 16.653 27.3065 16.653 27.5733 16.9198C27.8401 17.1867 27.8401 17.6193 27.5733 17.8861C27.3065 18.153 26.8738 18.153 26.607 17.8861ZM24.1912 20.3019C23.9244 20.0351 23.9244 19.6025 24.1912 19.3356C24.458 19.0688 24.8907 19.0688 25.1575 19.3356C25.4244 19.6025 25.4244 20.0351 25.1575 20.3019C24.8907 20.5688 24.458 20.5688 24.1912 20.3019ZM18.8765 15.9535C18.3428 15.4198 18.3428 14.5546 18.8765 14.0209C19.4102 13.4872 20.2754 13.4872 20.8091 14.0209C21.3428 14.5546 21.3428 15.4198 20.8091 15.9535C20.2754 16.4872 19.4102 16.4872 18.8765 15.9535ZM18.8765 11.122C18.3428 10.5883 18.3428 9.723 18.8765 9.18932C19.4102 8.65564 20.2754 8.65564 20.8091 9.18932C21.3428 9.723 21.3428 10.5883 20.8091 11.122C20.2754 11.6556 19.4102 11.6556 18.8765 11.122ZM16.4607 13.5377C15.927 13.0041 15.927 12.1388 16.4607 11.6051C16.9944 11.0714 17.8596 11.0714 18.3933 11.6051C18.927 12.1388 18.927 13.0041 18.3933 13.5377C17.8596 14.0714 16.9944 14.0714 16.4607 13.5377ZM11.6067 13.5377C11.073 13.0041 11.073 12.1388 11.6067 11.6051C12.1404 11.0714 13.0056 11.0714 13.5393 11.6051C14.073 12.1388 14.073 13.0041 13.5393 13.5377C13.0056 14.0714 12.1404 14.0714 11.6067 13.5377ZM7.01668 18.1277C6.61642 17.7275 6.61642 17.0785 7.01668 16.6783C7.41694 16.278 8.06589 16.278 8.46615 16.6783C8.86641 17.0785 8.86641 17.7275 8.46615 18.1277C8.06589 18.528 7.41694 18.528 7.01668 18.1277ZM14.264 15.7119C13.8638 15.3117 13.8638 14.6627 14.264 14.2625C14.6643 13.8622 15.3132 13.8622 15.7135 14.2625C16.1138 14.6627 16.1138 15.3117 15.7135 15.7119C15.3132 16.1122 14.6643 16.1122 14.264 15.7119ZM11.8483 18.1277C11.448 17.7275 11.448 17.0785 11.8483 16.6783C12.2485 16.278 12.8975 16.278 13.2977 16.6783C13.698 17.0785 13.698 17.7275 13.2977 18.1277C12.8975 18.528 12.2485 18.528 11.8483 18.1277ZM2.42669 17.8861C2.15985 17.6193 2.15985 17.1867 2.42669 16.9198C2.69353 16.653 3.12617 16.653 3.39301 16.9198C3.65985 17.1867 3.65985 17.6193 3.39301 17.8861C3.12617 18.153 2.69353 18.153 2.42669 17.8861ZM4.84248 20.3019C4.57564 20.0351 4.57564 19.6025 4.84248 19.3356C5.10932 19.0688 5.54195 19.0688 5.80879 19.3356C6.07563 19.6025 6.07563 20.0351 5.80879 20.3019C5.54195 20.5688 5.10932 20.5688 4.84248 20.3019ZM14.5056 20.3019C14.2388 20.0351 14.2388 19.6025 14.5056 19.3356C14.7725 19.0688 15.2051 19.0688 15.4719 19.3356C15.7388 19.6025 15.7388 20.0351 15.4719 20.3019C15.2051 20.5688 14.7725 20.5688 14.5056 20.3019ZM4.6009 15.7119C4.20064 15.3117 4.20064 14.6627 4.6009 14.2625C5.00116 13.8622 5.65011 13.8622 6.05037 14.2625C6.45063 14.6627 6.45063 15.3117 6.05037 15.7119C5.65011 16.1122 5.00116 16.1122 4.6009 15.7119ZM9.19089 15.9535C8.65721 15.4198 8.65721 14.5546 9.19089 14.0209C9.72457 13.4872 10.5898 13.4872 11.1235 14.0209C11.6572 14.5546 11.6572 15.4198 11.1235 15.9535C10.5898 16.4872 9.72457 16.4872 9.19089 15.9535ZM9.19089 11.122C8.65721 10.5883 8.65721 9.723 9.19089 9.18932C9.72457 8.65564 10.5898 8.65564 11.1235 9.18932C11.6572 9.723 11.6572 10.5883 11.1235 11.122C10.5898 11.6556 9.72457 11.6556 9.19089 11.122ZM6.7751 13.5377C6.24142 13.0041 6.24142 12.1388 6.7751 11.6051C7.30879 11.0714 8.17405 11.0714 8.70773 11.6051C9.24141 12.1388 9.24141 13.0041 8.70773 13.5377C8.17405 14.0714 7.30879 14.0714 6.7751 13.5377Z" fill="black"/>
</svg>
